<svg xmlns="http://www.w3.org/2000/svg" viewBox="0 0 1920 560" role="img" aria-labelledby="title desc">
  <title id="title">Banner promocional Caomisa</title>
  <desc id="desc">Placeholder visual para banner da loja.</desc>
  <defs>
    <linearGradient id="bg" x1="0" x2="1" y1="0" y2="1">
      <stop offset="0" stop-color="#f7fafc"/>
      <stop offset="0.48" stop-color="#fff4ec"/>
      <stop offset="1" stop-color="#eaf6ff"/>
    </linearGradient>
    <pattern id="dots" width="46" height="46" patternUnits="userSpaceOnUse">
      <circle cx="8" cy="8" r="3" fill="#ff6b00" opacity=".16"/>
    </pattern>
  </defs>
  <rect width="1920" height="560" fill="url(#bg)"/>
  <rect width="1920" height="560" fill="url(#dots)"/>
  <path d="M1270 92c182 38 336 133 432 282 30 46-4 108-59 108H1037c-55 0-88-62-58-108 66-102 157-246 291-282Z" fill="#003455" opacity=".07"/>
  <path d="M158 400c160-38 355-46 555 8 106 29 206 29 302 5" fill="none" stroke="#ff6b00" stroke-width="18" stroke-linecap="round" opacity=".18"/>
  <rect x="126" y="122" width="560" height="58" rx="12" fill="#003455" opacity=".08"/>
  <rect x="126" y="205" width="760" height="88" rx="18" fill="#003455" opacity=".12"/>
  <rect x="126" y="326" width="430" height="54" rx="27" fill="#ff6b00" opacity=".24"/>
</svg>
